<svg xmlns="http://www.w3.org/2000/svg">
    <g id="dropdown">
      <path d="M0 12H18V10H0V12ZM0 7H18V5H0V7ZM0 0V2H18V0H0Z" fill="inherit" />
    </g>


 <g id="youtobu-logo">
<path d="M0 12H18V10H0V12ZM0 7H18V5H0V7ZM0 0V2H18V0H0Z" fill="#606060"/>
 </g>

<g id="home">
      <path d="M8 17V11H12V17H17V9H20L10 0L0 9H3V17" fill="inherit" />
   
    </g>
  <g id="fire">
      <path
        d="M12.421 8.2C12.191 7.9 11.921 7.64 11.661 7.38C11.011 6.78 10.261 6.35 9.63096 5.72C8.17096 4.26 7.85096 1.85 8.78096 0C7.88096 0.23 7.03096 0.75 6.33096 1.32C3.79096 3.4 2.79096 7.07 3.99096 10.22C4.03096 10.32 4.07096 10.42 4.07096 10.55C4.07096 10.77 3.92096 10.97 3.72096 11.05C3.50096 11.15 3.26096 11.09 3.08096 10.93C3.02096 10.88 2.98096 10.83 2.93096 10.76C1.83096 9.33 1.65096 7.28 2.40096 5.64C0.760959 7 -0.109041 9.3 0.0109586 11.47C0.0509586 11.97 0.110959 12.47 0.280959 12.97C0.420959 13.57 0.680959 14.17 1.00096 14.7C2.04096 16.43 3.87096 17.67 5.84096 17.92C7.94096 18.19 10.191 17.8 11.801 16.32C13.601 14.66 14.251 12.02 13.301 9.72L13.171 9.46C12.971 9.01 12.701 8.59 12.391 8.21L12.421 8.2ZM9.32096 14.5C9.04096 14.74 8.59096 15 8.24096 15.1C7.14096 15.48 6.04096 14.94 5.36096 14.28C6.56096 14 7.26096 13.12 7.46096 12.23C7.63096 11.43 7.32096 10.77 7.19096 10C7.07096 9.26 7.09096 8.63 7.39096 7.94C7.54096 8.32 7.74096 8.7 7.97096 9C8.73096 10 9.92096 10.44 10.171 11.8C10.211 11.94 10.231 12.08 10.231 12.23C10.261 13.05 9.91096 13.95 9.31096 14.49L9.32096 14.5Z"
        fill="inherit"
      />
    </g>
    <g id="play">
   
      <path
        d="M15 5H1.6V3.3H15V5ZM13.3 0H3.3V1.6H13.3V0ZM16.6 8.3V15C16.6 16 15.9 16.6 15 16.6H1.6C0.6 16.6 0 15.9 0 15V8.3C0 7.3 0.7 6.6 1.6 6.6H15C16 6.6 16.6 7.4 16.6 8.3ZM11.6 11.6L6.6 8.9V14.3L11.6 11.6Z"
        fill="inherit"
      />
    </g>
    <g id="play-big">
      <path
        d="M2 4H0V18C0 19.1 0.9 20 2 20H16V18H2V4ZM18 0H6C4.9 0 4 0.9 4 2V14C4 15.1 4.9 16 6 16H18C19.1 16 20 15.1 20 14V2C20 0.9 19.1 0 18 0ZM10 12.5V3.5L16 8L10 12.5Z"
        fill="inherit"
      />
    </g>
    <g id="clock">
      <path
        d="M10.98 0C6.43 0 2.75 3.7 2.75 8.25H0L3.57 11.82L3.61 11.95L7.31 8.25H4.58C4.58 4.71 7.45 1.83 11 1.83C14.54 1.83 17.4 4.71 17.4 8.25C17.4 11.79 14.54 14.67 11 14.67C9.22 14.67 7.62 13.94 6.46 12.77L5.16 14.07C6.66 15.57 8.71 16.5 10.99 16.5C15.57 16.5 19.27 12.8 19.27 8.25C19.27 3.69 15.57 0 11.01 0H10.98ZM10.08 4.58V9.18L14 11.48L14.66 10.38L11.46 8.48V4.58H10.08Z"
        fill="inherit"
      />
    </g>
    <g id="cube">
      <path
        fill-rule="evenodd"
        clip-rule="evenodd"
        d="M14.6028 14.6028V1.80278H1.80278V14.6028H14.6028ZM1.80278 0.00278302H14.6028C14.8474 -0.0108303 15.0923 0.0256523 15.3224 0.109996C15.5524 0.194339 15.7628 0.324766 15.9407 0.493288C16.1186 0.66181 16.2602 0.864876 16.3569 1.09005C16.4535 1.31522 16.5032 1.55775 16.5028 1.80278V14.6028C16.5173 14.8561 16.4781 15.1096 16.3877 15.3467C16.2974 15.5838 16.1579 15.7991 15.9785 15.9785C15.7991 16.1579 15.5838 16.2974 15.3467 16.3877C15.1096 16.4781 14.8561 16.5173 14.6028 16.5028H1.80278C1.55775 16.5032 1.31522 16.4535 1.09005 16.3569C0.864876 16.2602 0.661809 16.1186 0.493287 15.9407C0.324766 15.7628 0.194338 15.5524 0.109995 15.3224C0.0256516 15.0923 -0.0108311 14.8474 0.00278228 14.6028V1.80278C0.00278228 1.32539 0.192424 0.867556 0.52999 0.529991C0.867555 0.192425 1.32539 0.00278302 1.80278 0.00278302ZM6.40283 11.7028V5.30276L11.4028 8.50276L6.40283 11.7028Z"
        fill="inherit"
      />
    </g>
    <g id="clock-fill">
      <path
        d="M8.33 0C3.75 0 0 3.75 0 8.33C0 12.91 3.75 16.66 8.33 16.66C12.91 16.66 16.66 12.91 16.66 8.33C16.66 3.75 12.91 0 8.33 0ZM11.83 11.83L7.5 9.16V4.16H8.75V8.5L12.5 10.75L11.83 11.83Z"
        fill="inherit"
      />
    </g>
    <g id="thumb-up">
      <path
        d="M0 15H3V6H0V15ZM16.5 6.75C16.5 5.92 15.82 5.25 15 5.25H10.27L10.97 1.82L11 1.58C11 1.28 10.87 0.98 10.67 0.78L9.87 0L4.95 4.95C4.65 5.21 4.5 5.59 4.5 6V13.5C4.5 14.32 5.17 15 6 15H12.75C13.37 15 13.9 14.62 14.13 14.1L16.4 8.8C16.46 8.62 16.5 8.44 16.5 8.25V6.75Z"
        fill="inherit"
      />
    </g>
    <g id="arrow-down">
      <path
        d="M10.59 0L6 4.58L1.41 0L0 1.41L6 7.41L12 1.41L10.59 0Z"
        fill="inherit"
      />
    </g>
    <g id="play-fill">
      <path
        d="M19.78 3.00056C19.78 3.00056 19.58 1.63056 18.98 1.03056C18.23 0.230556 17.38 0.230555 16.98 0.180555C14.2 -0.0194446 10 0.000555568 10 0.000555568C10 0.000555568 5.82 -0.0194446 3.03 0.180555C2.63 0.230555 1.79 0.230556 1.03 1.03056C0.43 1.63056 0.23 3.00056 0.23 3.00056C0.23 3.00056 0.03 4.63056 0 6.23056V7.93056C0.03 9.53056 0.23 11.1306 0.23 11.1306C0.23 11.1306 0.43 12.5306 1.03 13.1306C1.79 13.9306 2.78 13.8906 3.23 13.9806C4.8 14.1306 9.83 14.1606 10 14.1606C10 14.1606 14.2 14.1606 17 13.9606C17.38 13.9206 18.23 13.9206 19 13.1206C19.6 12.5206 19.8 11.1406 19.8 11.1406C19.8 11.1406 20 9.54056 20 7.92056V6.22056C19.98 4.62056 19.78 3.00056 19.78 3.00056ZM7.98 10.0006V4.16056L13.33 7.19056L7.97 10.0006H7.98Z"
        fill="inherit"
      />
    </g>
    <g id="heart">
      <path
        fill-rule="evenodd"
        clip-rule="evenodd"
        d="M20 8V3L15 0L10 3L5 0L0 3V8L10 14L20 8ZM7 6H5V8H4V6H2V5H4V3H5V5H7V6ZM13 8C12.45 8 12 7.55 12 7C12 6.45 12.45 6 13 6C13.55 6 14 6.45 14 7C14 7.55 13.55 8 13 8ZM16 6C15.45 6 15 5.55 15 5C15 4.45 15.45 4 16 4C16.55 4 17 4.45 17 5C17 5.55 16.55 6 16 6Z"
        fill="inherit"
      />
    </g>
    <g id="radar">
      <path
        fill-rule="evenodd"
        clip-rule="evenodd"
        d="M14.53 4.36L15.94 2.91C17.21 4.21 17.99 6.02 17.99 8C17.99 9.98 17.21 11.78 15.94 13.09L14.53 11.64C15.43 10.71 15.99 9.42 15.99 8C15.99 6.58 15.43 5.3 14.53 4.36ZM17.36 1.45L18.77 0C20.77 2.05 22 4.88 22 8.01C22 11.13 20.77 13.96 18.76 16L17.36 14.55C18.99 12.89 20 10.58 20 8.01C20 5.44 18.98 3.13 17.36 1.45ZM4.01 8C4.01 6.01 4.79 4.21 6.06 2.91L7.47 4.36C6.57 5.29 6.01 6.58 6.01 8C6.01 9.42 6.57 10.7 7.47 11.64L6.06 13.09C4.79 11.79 4.01 9.99 4.01 8ZM3.24 0L4.64 1.45C3.01 3.11 2 5.42 2 7.99C2 10.56 3.02 12.87 4.64 14.55L3.23 16C1.23 13.95 0 11.12 0 7.99C0 4.87 1.23 2.04 3.24 0ZM14 8C14 9.65685 12.6569 11 11 11C9.34315 11 8 9.65685 8 8C8 6.34315 9.34315 5 11 5C12.6569 5 14 6.34315 14 8Z"
        fill="inherit"
      />
    </g>
    <g id="settings">
      <path
        d="M17.2044 10.98C17.2444 10.66 17.2744 10.34 17.2744 10C17.2744 9.66 17.2444 9.34 17.2044 9.02L19.3044 7.37C19.5044 7.22 19.5544 6.95 19.4344 6.73L17.4344 3.27C17.3144 3.05 17.0344 2.97 16.8344 3.05L14.3344 4.05C13.8144 3.65 13.2544 3.32 12.6344 3.07L12.2644 0.42C12.2044 0.18 11.9944 0 11.7644 0H7.76444C7.49444 0 7.28444 0.18 7.26444 0.42L6.86444 3.07C6.26444 3.32 5.69444 3.67 5.16444 4.05L2.68444 3.05C2.45444 2.95 2.18444 3.05 2.08444 3.27L0.0844372 6.73C-0.0555628 6.95 0.00443737 7.23 0.184437 7.37L2.30444 9.02C2.26444 9.34 2.23444 9.67 2.23444 10C2.23444 10.33 2.25444 10.66 2.29444 10.98L0.194437 12.63C-0.00556263 12.78 -0.0555627 13.05 0.0644373 13.27L2.06444 16.73C2.18444 16.95 2.46444 17.03 2.66444 16.95L5.16444 15.95C5.68444 16.35 6.24444 16.68 6.86444 16.93L7.23444 19.58C7.27444 19.82 7.48444 20 7.73444 20H11.7344C11.9844 20 12.1944 19.82 12.2344 19.58L12.6044 16.93C13.2044 16.68 13.7744 16.33 14.3044 15.95L16.7844 16.95C17.0144 17.05 17.2844 16.95 17.3844 16.73L19.3844 13.27C19.5144 13.05 19.4644 12.77 19.2844 12.63L17.1644 10.98H17.2044ZM9.77444 13.5C7.84444 13.5 6.27444 11.93 6.27444 10C6.27444 8.07 7.84444 6.5 9.77444 6.5C11.7044 6.5 13.2744 8.07 13.2744 10C13.2744 11.93 11.7044 13.5 9.77444 13.5Z"
        fill="inherit"
      />
    </g>
    <g id="flag">
      <path d="M9.4 2L9 0H0V17H2V10H7.6L8 12H15V2H9.4Z" fill="inherit" />
    </g>


    <g id="question-mark">
      <path
        d="M10 0C4.48 0 0 4.48 0 10C0 15.52 4.48 20 10 20C15.52 20 20 15.52 20 10C20 4.48 15.52 0 10 0ZM11 17H9V15H11V17ZM13.07 9.25L12.17 10.17C11.45 10.9 11 11.5 11 13H9V12.5C9 11.4 9.45 10.4 10.17 9.67L11.41 8.41C11.78 8.05 12 7.55 12 7C12 5.9 11.1 5 10 5C8.9 5 8 5.9 8 7H6C6 4.79 7.79 3 10 3C12.21 3 14 4.79 14 7C14 7.88 13.64 8.68 13.07 9.25Z"
        fill="inherit"
      />
    </g>
    <g id="flag-fill">
      <path
        d="M18 0H2C0.9 0 0.00999999 0.9 0.00999999 2L0 20L4 16H18C19.1 16 20 15.1 20 14V2C20 0.9 19.1 0 18 0ZM11 12H9V10H11V12ZM11 8H9V4H11V8Z"
        fill="inherit"
      />
    </g>
    <g id="check">
      <path
        fill-rule="evenodd"
        clip-rule="evenodd"
        d="M5.5 0C2.464 0 0 2.464 0 5.5C0 8.536 2.464 11 5.5 11C8.536 11 11 8.536 11 5.5C11 2.464 8.536 0 5.5 0ZM4.356 8.7615L1.6335 6.039L2.761 4.9115L4.356 6.5065L8.3985 2.464L9.526 3.5915L4.356 8.7615Z"
        fill="inherit"
      />
    </g>
    <g id="arrow-right">
      <path d="M0 0V14L11 7L0 0Z" fill="inherit" />
    </g>
    </svg>